<?xml version="1.0" standalone="no"?>
<!DOCTYPE svg PUBLIC "-//W3C//DTD SVG 1.1//EN" "http://www.w3.org/Graphics/SVG/1.1/DTD/svg11.dtd" >
<svg xmlns="http://www.w3.org/2000/svg">
<metadata>
This is a custom SVG webfont generated by Fontspring.
Designer    : Ray Larabie
Foundry     : Ray Larabie
Foundry URL : http://www.typodermic.com
</metadata>
<defs>
<font id="webfont" horiz-adv-x="550" >
<font-face units-per-em="1000" ascent="774" descent="-226" />
<missing-glyph horiz-adv-x="234" />
<glyph unicode="&#x28;C&#x29;" horiz-adv-x="780" d="M393 734q336 0 336 -374q0 -186 -87 -280t-249 -94q-168 0 -256.5 93.5t-88.5 280.5q0 185 88.5 279.5t256.5 94.5zM393 688q-53 0 -101 -17.5t-89.5 -54t-66.5 -102.5t-25 -153q0 -70 17 -126.5t44.5 -93t65 -61t76 -34.5t79.5 -10q53 0 99.5 17.5t86.5 53.5t63.5 101.5 t23.5 152.5t-23.5 152.5t-63.5 102t-86.5 54.5t-99.5 18zM407 546q57 0 101 -16l-20 -48q-37 17 -81 17q-119 0 -119 -144q0 -63 26.5 -102t70.5 -39q63 0 117 47l34 -31q-65 -65 -160 -65q-78 0 -115 52.5t-37 137.5q0 93 42 142t141 49z" />
<glyph unicode="&#x28;R&#x29;" horiz-adv-x="580" d="M404 391h-52q-10 60 -25 82.5t-38 27.5h-22v-110h-46v246q40 4 75 4q89 0 89 -63q0 -23 -9 -37t-33 -23q21 -17 34 -45t27 -82zM267 541h33q39 0 39 33q0 28 -40 28q-12 0 -32 -2v-59zM303 738q212 0 212 -221q0 -222 -212 -222q-106 0 -162 55.5t-56 166.5 q0 108 56.5 164.5t161.5 56.5zM303 700q-71 0 -123 -44.5t-52 -138.5t52.5 -139.5t122.5 -45.5q71 0 121 45t50 140q0 93 -49.5 138t-121.5 45z" />
<glyph unicode=" "  horiz-adv-x="234" />
<glyph unicode="&#x09;" horiz-adv-x="234" />
<glyph unicode="&#xa0;" horiz-adv-x="234" />
<glyph unicode="!" horiz-adv-x="328" d="M93 760h142l-23 -549h-96zM164 104q24 0 40.5 -16t16.5 -41t-16.5 -42t-40.5 -17q-25 0 -41.5 17t-16.5 42t16.5 41t41.5 16z" />
<glyph unicode="&#x22;" horiz-adv-x="364" d="M77 479l-12 276h85l-13 -276h-60zM224 479l-11 276h85l-10 -276h-64z" />
<glyph unicode="#" horiz-adv-x="628" d="M480 720l77 -21l-48 -172h97v-67h-116l-42 -163h120v-68h-139l-49 -184l-78 21l44 163h-145l-50 -184l-78 21l46 163h-100v68h117l44 163h-121v67h140l52 193l78 -20l-48 -173h147zM264 460l-45 -163h145l43 163h-143z" />
<glyph unicode="$" horiz-adv-x="334" d="M142 618v104h55v-104q65 -7 94 -17l-5 -64q-58 23 -126 23q-27 0 -45.5 -16.5t-18.5 -45.5q0 -18 6 -31t24.5 -26.5t26 -18t36.5 -20.5q37 -20 54.5 -31t40.5 -30.5t32 -42.5t9 -54q0 -51 -35.5 -87t-92.5 -51v-103h-55v98q-97 4 -135 16l5 68q62 -23 144 -23 q37 0 62 23.5t25 63.5q0 38 -23 59.5t-69 41.5q-66 29 -100 61t-34 88q0 50 36 80.5t89 38.5z" />
<glyph unicode="%" horiz-adv-x="817" d="M624 382q78 0 112 -51t34 -146q0 -195 -146 -195q-150 0 -150 195q0 96 34.5 146.5t115.5 50.5zM624 321q-81 0 -81 -136q0 -133 81 -133q80 0 80 133q0 136 -80 136zM194 743q147 0 147 -197q0 -195 -147 -195q-149 0 -149 195q0 96 34 146.5t115 50.5zM187 0h-80 l520 734h80zM194 681q-81 0 -81 -135q0 -133 81 -133q80 0 80 133q0 135 -80 135z" />
<glyph unicode="&#x26;" horiz-adv-x="699" d="M286 735q140 0 140 -135q0 -111 -122 -185q71 -101 212 -225q25 33 46.5 90.5t28.5 106.5l89 -17q-11 -56 -38.5 -124t-58.5 -110l87 -65l-61 -75l-92 73q-109 -82 -256 -82q-97 0 -158.5 61.5t-61.5 145.5q0 73 39 128t111 109q-49 89 -49 158q0 62 37.5 104t106.5 42z M258 65q101 0 193 60q-143 129 -218 241q-47 -39 -72 -75.5t-25 -87.5q0 -65 35 -101.5t87 -36.5zM288 666q-27 0 -43 -17.5t-16 -50.5q0 -95 40 -118q23 15 37 27.5t26 34.5t12 49q0 37 -15 56t-41 19z" />
<glyph unicode="'" horiz-adv-x="189" d="M60 479l-12 275h86l-12 -275h-62z" />
<glyph unicode="(" horiz-adv-x="289" d="M199 766l48 -56q-62 -46 -98.5 -155.5t-36.5 -245.5q0 -148 42 -252.5t115 -136.5l-40 -58q-201 75 -201 447q0 352 171 457z" />
<glyph unicode=")" horiz-adv-x="290" d="M87 -139l-46 56q62 48 97.5 155.5t35.5 244.5q0 148 -41.5 252.5t-114.5 136.5l40 58q202 -78 202 -447q0 -355 -173 -456z" />
<glyph unicode="*" horiz-adv-x="438" d="M167 722h103l-21 -153l146 67l26 -85l-159 -31l108 -114l-82 -57l-69 134l-77 -132l-77 58l110 109l-159 36l30 83l144 -67z" />
<glyph unicode="+" d="M496 326h-177v-194h-82v194h-183v67h183v192h82v-192h177v-67z" />
<glyph unicode="," horiz-adv-x="178" d="M19 -153l68 267l91 -28l-108 -256z" />
<glyph unicode="-" horiz-adv-x="367" d="M292 249h-221v67h221v-67z" />
<glyph unicode="." horiz-adv-x="213" d="M103 104q23 0 39.5 -16t16.5 -41t-16.5 -42t-39.5 -17q-24 0 -41 17t-17 42q0 24 17 40.5t41 16.5z" />
<glyph unicode="/" horiz-adv-x="453" d="M-9 0l385 722h86l-384 -722h-87z" />
<glyph unicode="0" horiz-adv-x="566" d="M281 -14q-71 0 -120.5 27.5t-77 79.5t-39.5 117t-12 151t11.5 150t38 116.5t77 80t122.5 27.5q138 0 195 -93t57 -281q0 -86 -12.5 -151t-40 -117t-78 -79.5t-121.5 -27.5zM281 65q75 0 113.5 75.5t38.5 220.5t-39.5 222t-112.5 77q-74 0 -112.5 -77.5t-38.5 -221.5 q0 -296 151 -296z" />
<glyph unicode="1" horiz-adv-x="325" d="M29 570l-40 73l189 92h60v-735h-96v627z" />
<glyph unicode="2" horiz-adv-x="496" d="M253 735q93 0 150.5 -48.5t57.5 -138.5q0 -60 -65 -163t-138 -185.5t-123 -124.5h341v-75h-457v78q80 67 214.5 234.5t134.5 235.5q0 55 -32.5 83.5t-82.5 28.5q-85 0 -184 -47l-28 77q83 45 212 45z" />
<glyph unicode="3" horiz-adv-x="512" d="M216 735q114 0 163 -51.5t49 -147.5q0 -113 -90 -159q63 -25 90 -66t27 -103q0 -104 -53.5 -163t-186.5 -59q-69 0 -118.5 11t-97.5 46l50 71q55 -49 166 -49q145 0 145 147q0 69 -38 97.5t-113 28.5h-89v74h86q32 0 52 3.5t39.5 14.5t28.5 36t9 64q0 130 -126 130 q-80 0 -140 -38l-20 78q72 35 167 35z" />
<glyph unicode="4" horiz-adv-x="525" d="M20 153v67l340 502h82v-492h72v-77h-72v-153h-95v153h-327zM122 230h225v331z" />
<glyph unicode="5" horiz-adv-x="537" d="M457 639h-287l-12 -197q50 12 105 12q110 0 170 -55t60 -161q0 -105 -62.5 -178.5t-168.5 -73.5q-119 0 -227 63l30 81q99 -65 194 -65q62 0 98 49.5t36 116.5q0 69 -43 104.5t-118 35.5q-84 0 -172 -23l19 374h378v-83z" />
<glyph unicode="6" horiz-adv-x="568" d="M336 660q-85 0 -133.5 -61.5t-57.5 -199.5q65 59 173 59q103 0 165 -63.5t62 -162.5q0 -110 -73.5 -178t-191.5 -68q-64 0 -110.5 28t-72.5 78t-38 110.5t-12 133.5q0 114 22 194t63.5 123.5t92.5 62.5t118 19q99 0 160 -40l-30 -76q-61 41 -137 41zM293 378 q-41 0 -82.5 -22t-65.5 -51q3 -129 45.5 -184.5t102.5 -55.5q61 0 106 45t45 111q0 84 -43 120.5t-108 36.5z" />
<glyph unicode="7" horiz-adv-x="473" d="M22 647v75h435v-64l-261 -658h-115l275 647h-334z" />
<glyph unicode="8" horiz-adv-x="544" d="M273 735q85 0 143.5 -45t58.5 -125q0 -62 -28 -102t-95 -73q80 -45 117.5 -90.5t37.5 -113.5q0 -85 -70.5 -142.5t-163.5 -57.5q-94 0 -164.5 57t-70.5 143q0 68 36.5 114.5t120.5 88.5q-70 32 -98 73t-28 103q0 79 57.5 124.5t146.5 45.5zM134 193q0 -62 39.5 -97 t93.5 -35q56 0 94 35t38 97q0 29 -10 52t-33 43t-39.5 31t-50.5 30q-29 -14 -47 -25.5t-40.5 -30.5t-33.5 -44t-11 -56zM278 666q-109 0 -109 -99q0 -89 108 -141q55 29 81.5 59.5t26.5 81.5q0 50 -29 74.5t-78 24.5z" />
<glyph unicode="9" horiz-adv-x="588" d="M248 64q83 0 129 56t55 192q-66 -60 -167 -60t-162 69t-61 169q0 111 66 178t179 67q57 0 100 -18t69.5 -48.5t43 -77t22.5 -97t6 -115.5q0 -111 -21 -189t-60.5 -122t-90 -63t-116.5 -19q-98 0 -157 39l30 79q61 -40 135 -40zM290 332q42 0 79.5 21.5t62.5 51.5 q-8 253 -152 253q-56 0 -99 -47t-43 -114q0 -72 41 -118.5t111 -46.5z" />
<glyph unicode=":" horiz-adv-x="235" d="M115 104q23 0 39.5 -16t16.5 -41t-16.5 -42t-39.5 -17q-24 0 -41 17t-17 42q0 24 17 40.5t41 16.5zM115 530q24 0 40 -16.5t16 -41.5q0 -24 -16.5 -40.5t-39.5 -16.5q-24 0 -41 16.5t-17 40.5q0 25 17 41.5t41 16.5z" />
<glyph unicode=";" horiz-adv-x="181" d="M94 530q23 0 39.5 -16.5t16.5 -41.5q0 -24 -16.5 -40.5t-39.5 -16.5q-26 0 -42.5 16t-16.5 41t16.5 41.5t42.5 16.5zM-13 -153l68 267l91 -28l-108 -256z" />
<glyph unicode="&#x3c;" d="M469 201v-79l-389 201v58l389 202v-82l-317 -148z" />
<glyph unicode="=" d="M507 240h-465v68h465v-68zM507 433h-465v66h465v-66z" />
<glyph unicode="&#x3e;" d="M80 122v79l315 152l-315 148v82l389 -202v-58z" />
<glyph unicode="?" horiz-adv-x="406" d="M173 700q-58 0 -135 -40l-32 84q90 31 167 31q104 0 165.5 -44.5t61.5 -130.5q0 -48 -21.5 -89t-52 -69.5l-60.5 -55.5t-51.5 -60.5t-21.5 -70.5q0 -27 6 -46h-79q-12 33 -12 59q0 40 20 77.5t49 67.5l58 58.5t49 61t20 64.5q0 103 -131 103zM161 105q24 0 40 -16t16 -41 t-16 -42t-40 -17q-25 0 -41.5 17t-16.5 42t16.5 41t41.5 16z" />
<glyph unicode="@" horiz-adv-x="739" d="M379 524q49 0 76 -40q1 23 8 45h50v-218q0 -20 5.5 -28t23.5 -8q29 0 53.5 40.5t24.5 114.5q0 239 -246 239q-113 0 -182.5 -89.5t-69.5 -222.5q0 -303 287 -303q126 0 219 65l37 -58q-105 -76 -256 -76q-58 0 -108 10t-98.5 36.5t-82 67.5t-54 107t-20.5 151 q0 160 87.5 269t240.5 109q156 0 236 -83.5t80 -229.5q0 -85 -42 -142t-107 -57q-42 0 -72 32q-18 -27 -37 -39t-53 -12q-134 0 -134 161q0 159 134 159zM379 474q-67 0 -67 -105q0 -112 75 -112q53 0 61 66v74q-11 77 -69 77z" />
<glyph unicode="A" horiz-adv-x="612" d="M106 0h-106l255 722h105l252 -722h-108l-70 222h-256zM410 299l-103 323l-106 -323h209z" />
<glyph unicode="B" horiz-adv-x="556" d="M87 0v712q80 10 178 10q122 0 176.5 -43.5t54.5 -128.5q0 -62 -33.5 -103.5t-93.5 -57.5q150 -43 150 -173q0 -216 -344 -216h-88zM181 341v-268q242 0 242 137q0 66 -38 98.5t-106 32.5h-98zM181 637v-222q219 0 219 123q0 60 -31 83.5t-99 23.5q-43 0 -89 -8z" />
<glyph unicode="C" horiz-adv-x="602" d="M325 735q86 0 146 -23t117 -76l-52 -59q-53 43 -100 62t-118 19q-76 0 -118 -80t-42 -213q0 -139 43 -220.5t126 -81.5q119 0 217 81l52 -58q-55 -53 -120.5 -76.5t-160.5 -23.5q-255 0 -255 379q0 370 265 370z" />
<glyph unicode="D" horiz-adv-x="663" d="M255 728q163 0 255.5 -94.5t92.5 -272.5q0 -192 -111 -277t-327 -85q-13 0 -39 0.5t-39 0.5v719q84 9 168 9zM256 649q-58 0 -73 -5v-563q159 0 240 65t81 215q0 80 -20.5 138t-56.5 89.5t-78.5 46t-92.5 14.5z" />
<glyph unicode="E" horiz-adv-x="494" d="M87 722h373v-75h-276v-226h249v-77h-249v-269h281v-75h-378v722z" />
<glyph unicode="F" horiz-adv-x="470" d="M87 722h377v-75h-279v-239h244v-78h-244v-330h-98v722z" />
<glyph unicode="G" horiz-adv-x="664" d="M326 370h263v-370h-70l-13 61q-26 -29 -72 -52t-104 -23q-145 0 -207.5 98t-62.5 281q0 370 265 370q86 0 146 -23t117 -76l-52 -59q-53 43 -100 62t-118 19q-76 0 -118 -80t-42 -213q0 -139 43 -220.5t126 -81.5q109 0 167 80v152h-168v75z" />
<glyph unicode="H" horiz-adv-x="695" d="M87 722h98v-309h326v309h96v-722h-96v336h-326v-336h-98v722z" />
<glyph unicode="I" horiz-adv-x="271" d="M87 722h97v-722h-97v722z" />
<glyph unicode="J" horiz-adv-x="353" d="M275 722v-558q0 -84 -40.5 -131t-122.5 -47q-56 0 -98 24l27 74q36 -19 64 -19q40 0 57.5 20t17.5 73v564h95z" />
<glyph unicode="K" horiz-adv-x="615" d="M483 0l-299 355v-355h-97v722h97v-294l285 294h125l-334 -323l356 -399h-133z" />
<glyph unicode="L" horiz-adv-x="460" d="M87 722h98v-647h263v-75h-361v722z" />
<glyph unicode="M" horiz-adv-x="788" d="M341 0l-189 591v-591h-96l23 722h114l198 -595l199 595h114l22 -722h-105v591l-179 -591h-101z" />
<glyph unicode="N" horiz-adv-x="707" d="M87 0v722h109l337 -591v591h86v-722h-105l-338 590v-590h-89z" />
<glyph unicode="O" horiz-adv-x="731" d="M368 735q155 0 228.5 -92.5t73.5 -281.5q0 -190 -73.5 -282.5t-228.5 -92.5q-308 0 -308 375q0 182 81 278t227 96zM368 660q-86 0 -145 -73t-59 -226q0 -155 58.5 -225.5t145.5 -70.5t142.5 71t55.5 225q0 153 -57 226t-141 73z" />
<glyph unicode="P" horiz-adv-x="560" d="M265 722q154 0 213.5 -45.5t59.5 -139.5q0 -110 -61.5 -169.5t-183.5 -59.5h-110v-308h-96v713q102 9 178 9zM314 642q-58 0 -131 -10v-250h124q63 0 99 37t36 104q0 119 -128 119z" />
<glyph unicode="Q" horiz-adv-x="720" d="M363 735q294 0 294 -371q0 -274 -193 -348l218 -54l-24 -88l-375 120q-111 36 -167 123.5t-56 243.5q0 186 77.5 280t225.5 94zM363 660q-86 0 -142.5 -72.5t-56.5 -226.5q0 -156 56 -226t143 -70q85 0 137.5 72t52.5 224q0 156 -53.5 227.5t-136.5 71.5z" />
<glyph unicode="R" horiz-adv-x="568" d="M548 0h-109l-147 335h-108v-335h-97v712q100 10 191 10q114 0 169.5 -42t55.5 -130q0 -66 -31.5 -114t-97.5 -69zM184 413h104q121 0 121 124q0 62 -32 87.5t-92 25.5q-49 0 -101 -11v-226z" />
<glyph unicode="S" horiz-adv-x="510" d="M265 735q99 0 171 -26l-14 -78q-87 29 -162 29q-53 0 -85.5 -25.5t-32.5 -70.5q0 -26 9.5 -47t31.5 -39t41 -29t53 -29q11 -6 46 -23t48.5 -25t39 -27.5t36.5 -39t20.5 -50.5t9.5 -69q0 -93 -72.5 -146.5t-171.5 -53.5q-111 0 -201 25l25 91q82 -37 175 -37 q58 0 103.5 33.5t45.5 94.5q0 25 -6 45.5t-13.5 33t-25 25.5t-28 19t-36.5 18t-37 18q-43 20 -69.5 35.5t-57.5 41.5t-46 60t-15 76q0 79 62 124.5t156 45.5z" />
<glyph unicode="T" horiz-adv-x="522" d="M6 722h510v-75h-208v-647h-95v647h-207v75z" />
<glyph unicode="U" horiz-adv-x="674" d="M77 722h97v-502q0 -155 162 -155q164 0 164 155v502h96v-519q0 -100 -72 -158.5t-188 -58.5q-111 0 -185 58.5t-74 158.5v519z" />
<glyph unicode="V" horiz-adv-x="612" d="M106 722l201 -626l203 626h102l-256 -722h-105l-251 722h106z" />
<glyph unicode="W" horiz-adv-x="795" d="M221 133l128 589h106l125 -588l116 588h99l-164 -722h-98l-130 599l-129 -599h-109l-165 722h105z" />
<glyph unicode="X" horiz-adv-x="589" d="M301 453l155 269h117l-218 -339l246 -383h-126l-181 310l-182 -310h-118l252 377l-228 345h124z" />
<glyph unicode="Y" horiz-adv-x="572" d="M114 722l173 -341l179 341h106l-236 -431v-291h-96v291l-240 431h114z" />
<glyph unicode="Z" horiz-adv-x="491" d="M41 642v80h437v-66l-349 -578h361v-78h-481v69l356 573h-324z" />
<glyph unicode="[" horiz-adv-x="280" d="M71 -152v951h215v-65h-132v-820h132v-66h-215z" />
<glyph unicode="\" horiz-adv-x="453" d="M77 721l384 -720h-87l-384 720h87z" />
<glyph unicode="]" horiz-adv-x="280" d="M206 799v-951h-214v65h130v820h-130v66h214z" />
<glyph unicode="^" horiz-adv-x="450" d="M342 329l-118 274l-122 -274h-84l182 392h46l186 -392h-90z" />
<glyph unicode="_" horiz-adv-x="525" d="M550 -65v-57h-574v57h574z" />
<glyph unicode="`" horiz-adv-x="205" d="M2 684l53 63l144 -119l-34 -38z" />
<glyph unicode="a" horiz-adv-x="486" d="M268 536q84 0 118 -39.5t34 -119.5v-377h-69q-10 26 -10 70q-34 -42 -69.5 -61.5t-87.5 -19.5q-65 0 -104.5 41.5t-39.5 96.5q0 96 79 142.5t217 46.5v70q0 38 -16.5 56.5t-54.5 18.5q-88 0 -169 -53l-36 59q36 29 94.5 49t113.5 20zM336 152v108q-207 -12 -207 -125 q0 -75 76 -75q41 0 78 26t53 66z" />
<glyph unicode="b" horiz-adv-x="499" d="M163 760v-274q60 50 138 50q170 0 170 -258q0 -56 -10 -104.5t-32.5 -91.5t-64 -68t-98.5 -25q-112 0 -195 11v760h92zM270 461q-61 0 -113 -56v-334q59 -14 102 -14q46 0 85 49.5t39 162.5q0 112 -29.5 152t-83.5 40z" />
<glyph unicode="c" horiz-adv-x="435" d="M235 535q44 0 82 -15.5t58.5 -31.5t48.5 -44l-45 -49q-33 33 -64 50t-75 17q-123 0 -123 -199q0 -99 32 -150t89 -51q84 0 149 67l46 -49q-41 -41 -88.5 -66t-118.5 -25q-102 0 -150 76.5t-48 197.5q0 123 48.5 197.5t158.5 74.5z" />
<glyph unicode="d" horiz-adv-x="511" d="M439 760v-760h-74q-9 33 -9 67q-30 -39 -70 -58.5t-78 -19.5q-54 0 -91.5 20.5t-55.5 58t-25.5 79t-7.5 95.5q0 141 48 217.5t159 76.5q64 0 117 -45v269h87zM256 461q-71 0 -104 -48.5t-33 -165.5q0 -101 21.5 -143t75.5 -42q44 0 86.5 33.5t49.5 68.5v250 q-41 47 -96 47z" />
<glyph unicode="e" horiz-adv-x="471" d="M235 536q56 0 97 -21t63 -56.5t32 -74.5t10 -82v-32h-324q2 -45 7 -77.5t17.5 -64.5t38 -49t63.5 -17q43 0 92 22t72 55l40 -52q-73 -98 -220 -98q-48 0 -84.5 18.5t-56.5 46.5t-33 66.5t-17 71.5t-4 69q0 275 207 275zM235 467q-57 0 -84 -34t-36 -105h237 q-12 139 -117 139z" />
<glyph unicode="f" horiz-adv-x="292" d="M312 526v-68h-137v-458h-89v458h-79v68h79v78q0 96 46.5 134.5t126.5 38.5q51 0 91 -29l-31 -61q-27 18 -70 18q-37 0 -55.5 -21.5t-18.5 -91.5v-66h137z" />
<glyph unicode="g" horiz-adv-x="532" d="M434 460v-91q0 -27 -9 -56t-28.5 -57.5t-56.5 -46.5t-87 -18q-34 0 -55 4q-40 -3 -40 -39q0 -20 11.5 -34.5t28.5 -14.5h140q91 0 131.5 -48.5t40.5 -114.5q0 -63 -43 -109.5t-129 -46.5h-143q-94 0 -133.5 46.5t-39.5 117.5q0 57 28.5 93.5t62.5 47.5q-32 18 -32 61 q0 23 12.5 44t36.5 28q-74 39 -74 140q0 65 46 112.5t137 47.5h282v-66h-87zM195 39q-38 0 -61 -23.5t-23 -59.5q0 -37 23.5 -62.5t60.5 -25.5h143q37 0 60 25.5t23 62.5t-21 60t-62 23h-143zM253 262q43 0 69 30t26 79v87h-109q-45 0 -69.5 -25.5t-24.5 -66.5q0 -54 25 -79 t83 -25z" />
<glyph unicode="h" horiz-adv-x="520" d="M455 0h-89v409q0 26 -18.5 39t-43.5 13q-28 0 -68 -21t-74 -57v-383h-91v760h91v-302q35 34 82 56t94 22q117 0 117 -135v-401z" />
<glyph unicode="i" horiz-adv-x="232" d="M160 526v-526h-90v526h90zM116 769q25 0 42 -15t17 -37t-17 -37.5t-42 -15.5t-42 15t-17 38q0 22 17 37t42 15z" />
<glyph unicode="j" horiz-adv-x="246" d="M174 526v-590q0 -148 -114 -148q-59 0 -99 17l15 70q39 -13 68 -13q40 0 40 72v592h90zM129 769q26 0 43 -15t17 -37q0 -23 -17 -38t-43 -15t-42.5 15t-16.5 38q0 22 17 37t42 15z" />
<glyph unicode="k" horiz-adv-x="461" d="M352 0l-190 264v-264h-91v760h91v-441l179 207h113l-209 -224l225 -302h-118z" />
<glyph unicode="l" horiz-adv-x="233" d="M162 0h-91v760h91v-760z" />
<glyph unicode="m" horiz-adv-x="754" d="M429 0h-89v413q0 48 -53 48q-56 0 -125 -78v-383h-91v526h74q10 -42 10 -68q83 78 164 78q78 0 101 -74q81 74 159 74q55 0 82.5 -36.5t27.5 -84.5v-415h-90v413q0 48 -52 48q-49 0 -118 -72v-389z" />
<glyph unicode="n" horiz-adv-x="518" d="M452 0h-89v409q0 52 -61 52q-67 0 -140 -78v-383h-91v526h74q10 -43 10 -68q85 78 180 78q117 0 117 -135v-401z" />
<glyph unicode="o" horiz-adv-x="485" d="M242 536q215 0 215 -275q0 -57 -11 -103.5t-34.5 -86t-66.5 -61t-103 -21.5q-214 0 -214 272q0 57 11 104t34.5 87t66.5 62t102 22zM242 461q-61 0 -92.5 -56t-31.5 -144q0 -87 31.5 -143t92.5 -56t93 56t32 143q0 88 -31.5 144t-93.5 56z" />
<glyph unicode="p" horiz-adv-x="511" d="M71 -212v738h73q10 -37 10 -62q51 72 149 72q64 0 106 -38t58 -92t16 -122q0 -295 -207 -295q-74 0 -117 46v-247h-88zM253 62q71 0 104.5 49t33.5 167q0 98 -25.5 140.5t-76.5 42.5q-49 0 -84 -29t-46 -71v-246q47 -53 94 -53z" />
<glyph unicode="q" horiz-adv-x="503" d="M340 -212v250q-53 -49 -129 -49q-183 0 -183 276q0 57 10 103.5t32.5 85.5t62.5 60.5t95 21.5q79 0 124 -49q0 12 8 39h72v-738h-92zM237 62q29 0 59.5 19t49.5 41v290q-14 21 -42 35t-59 14q-22 0 -42 -8.5t-41 -28.5t-33.5 -62t-12.5 -101q0 -115 32 -157t89 -42z" />
<glyph unicode="r" horiz-adv-x="321" d="M71 526h73q10 -33 10 -73q46 73 155 73v-77q-106 0 -147 -80v-369h-91v526z" />
<glyph unicode="s" horiz-adv-x="394" d="M335 509l-13 -69q-55 21 -120 21q-77 0 -77 -51q0 -31 25.5 -54t61.5 -40t72.5 -36.5t62 -53t25.5 -79.5q0 -68 -52 -113t-137 -45q-99 0 -159 21l22 78q52 -26 132 -26q43 0 75 21.5t32 68.5q0 53 -107 96q-69 27 -106 63t-37 98q0 59 43.5 93t121.5 34q67 0 135 -27z " />
<glyph unicode="t" horiz-adv-x="333" d="M172 662v-136h142v-68h-142v-332q0 -56 38 -56q21 0 44 15.5t37 37.5l41 -54q-14 -21 -55 -47.5t-79 -26.5q-117 0 -117 110v353h-79v68h79v136h91z" />
<glyph unicode="u" horiz-adv-x="503" d="M66 526h89v-405q0 -27 15.5 -41t39.5 -14q59 0 131 77v383h91v-526h-74q-10 43 -10 68q-83 -76 -172 -76q-110 0 -110 137v397z" />
<glyph unicode="v" horiz-adv-x="447" d="M102 526l126 -416l122 416h97l-174 -526h-90l-183 526h102z" />
<glyph unicode="w" horiz-adv-x="674" d="M198 130l93 396h103l92 -396l93 396h95l-150 -526h-81l-100 405l-98 -405h-99l-146 526h106z" />
<glyph unicode="x" horiz-adv-x="429" d="M217 342l105 184h106l-166 -243l186 -283h-115l-124 219l-123 -219h-105l184 275l-165 251h112z" />
<glyph unicode="y" horiz-adv-x="458" d="M102 526l128 -409l135 409h97l-221 -600q-24 -61 -75 -99.5t-107 -38.5q-69 0 -103 12l40 80q25 -11 56 -11q81 0 113 86l21 56l-189 515h105z" />
<glyph unicode="z" horiz-adv-x="392" d="M29 456v70h341v-58l-258 -400h279v-68h-389v61l252 395h-225z" />
<glyph unicode="{" horiz-adv-x="293" d="M273 734h-40q-27 0 -39 -8t-18.5 -38.5t-6.5 -97.5v-133q0 -90 -105 -123q55 -23 80 -53t25 -73v-148q0 -69 6.5 -100t18 -38.5t39.5 -7.5h40v-66h-49q-55 0 -93 35t-38 115v168q0 70 -16.5 99.5t-51.5 29.5h-29v76h29q38 0 53 31t15 96v169q0 69 37.5 100.5t89.5 31.5 h53v-65z" />
<glyph unicode="|" d="M238 -181v976h74v-976h-74z" />
<glyph unicode="}" horiz-adv-x="292" d="M57 734h-39v65h52q53 0 90 -31.5t37 -100.5v-169q0 -64 15 -95.5t52 -31.5h30v-76h-30q-34 0 -50.5 -30t-16.5 -99v-168q0 -80 -37.5 -115t-91.5 -35h-50v66h39q28 0 39.5 7.5t17.5 38t6 100.5v148q0 42 26 72t81 52q-54 20 -80.5 49t-26.5 76v133q0 68 -6 98t-17.5 38 t-39.5 8z" />
<glyph unicode="~" d="M39 220v96q48 60 117 60q50 0 122 -29.5t105 -29.5q53 0 128 85v-94q-54 -61 -134 -61q-39 0 -110 29.5t-107 29.5q-52 0 -121 -86z" />
<glyph unicode="&#xa1;" horiz-adv-x="304" d="M235 -212h-142l22 548h96zM163 443q-23 0 -39.5 16.5t-16.5 40.5q0 25 16.5 42t39.5 17q25 0 42 -16.5t17 -42.5q0 -25 -16.5 -41t-42.5 -16z" />
<glyph unicode="&#xa2;" horiz-adv-x="385" d="M269 0h-66v105q-106 15 -146.5 79.5t-40.5 176.5t40.5 175.5t146.5 79.5v106h66v-104q55 0 102 -14l-20 -61q-47 16 -108 16q-73 0 -111 -53.5t-38 -144.5t37 -144t112 -53q80 0 122 21l26 -59q-41 -16 -122 -22v-104z" />
<glyph unicode="&#xa3;" horiz-adv-x="492" d="M386 297h-169q-10 -73 -32 -125t-62 -108h358v-64h-466v64h28q41 60 63 110t32 123h-68v67h76q3 45 3 102q0 128 57.5 198t156.5 70q88 0 133 -41l-42 -61q-50 37 -93 37q-133 0 -133 -203q0 -52 -2 -102h160v-67z" />
<glyph unicode="&#xa4;" horiz-adv-x="444" d="M222 483q23 0 52 -9l77 76l67 -67l-64 -65q23 -32 23 -75q0 -34 -18 -67l51 -51l-55 -55l-55 54q-36 -19 -78 -19q-37 0 -68 14l-58 -59l-68 68l53 53q-15 27 -15 62q0 51 30 86l-63 63l55 56l74 -75q30 10 60 10zM138 343q0 -32 24.5 -54.5t59.5 -22.5t60 22.5t25 54.5 t-25 54.5t-60 22.5t-59.5 -22.5t-24.5 -54.5z" />
<glyph unicode="&#xa5;" horiz-adv-x="545" d="M79 304h153v89l-194 329h87l148 -264l146 264h87l-192 -329v-89h151v-59h-151v-84h151v-59h-151v-102h-82v102h-153v59h153v84h-153v59z" />
<glyph unicode="&#xa6;" d="M238 -181v399h74v-399h-74zM312 795v-374h-74v374h74z" />
<glyph unicode="&#xa7;" horiz-adv-x="399" d="M190 734q80 0 129 -18v-63q-64 23 -133 23q-23 0 -39 -14t-16 -36q0 -25 19.5 -48t41 -35.5t57.5 -30.5t49 -26q40 -24 59 -52.5t19 -71.5q0 -38 -24.5 -76t-63.5 -50q60 -39 60 -116q0 -57 -46 -95.5t-109 -38.5q-86 0 -152 16v67q62 -24 145 -24q33 0 57.5 20.5 t24.5 60.5q0 30 -18 50t-59 42q-48 25 -69 38t-48 35t-37 46.5t-10 57.5q0 36 26 70.5t63 50.5q-32 24 -46 47.5t-14 63.5q0 45 34.5 76t99.5 31zM217 275q36 0 57.5 21.5t21.5 59.5q0 17 -7 32t-15 25t-24.5 21t-25.5 16t-27.5 13.5t-22.5 10.5q-30 -10 -50 -33t-20 -49 q0 -22 10 -40t30.5 -33.5t34 -23.5t38.5 -20z" />
<glyph unicode="&#xa8;" horiz-adv-x="419" d="M117 710q23 0 38.5 -14t15.5 -35q0 -20 -16 -35.5t-38 -15.5t-36.5 15t-14.5 36q0 22 14 35.5t37 13.5zM305 710q22 0 37 -14t15 -35t-15.5 -36t-36.5 -15q-23 0 -38.5 15t-15.5 36q0 22 15.5 35.5t38.5 13.5z" />
<glyph unicode="&#xaa;" horiz-adv-x="323" d="M167 691q129 0 129 -133v-240h-48l-8 30q-32 -38 -115 -38q-43 0 -72 29t-29 74q0 65 58 96.5t151 34.5q0 82 -64 82q-53 0 -109 -30l-22 59q22 17 61 26.5t68 9.5zM236 409v85q-55 -3 -100 -21.5t-45 -54.5q0 -47 51 -47q31 0 57.5 10.5t36.5 27.5z" />
<glyph unicode="&#xab;" horiz-adv-x="371" d="M309 167l-43 -47l-98 155l98 156l42 -48l-66 -107zM167 167l-44 -47l-98 155l98 156l44 -48l-68 -108z" />
<glyph unicode="&#xac;" d="M576 526v-526h-100v442h-501v84h601z" />
<glyph unicode="&#xad;" horiz-adv-x="367" d="M292 249h-221v67h221v-67z" />
<glyph unicode="&#xaf;" horiz-adv-x="412" d="M20 677h351v-69h-351v69z" />
<glyph unicode="&#xb0;" horiz-adv-x="376" d="M186 691q-48 0 -70.5 -29.5t-22.5 -77.5q0 -49 22.5 -79t70.5 -30q47 0 70.5 30t23.5 79q0 48 -23.5 77.5t-70.5 29.5zM186 734q71 0 105 -42t34 -109q0 -68 -34 -110.5t-105 -42.5q-70 0 -103 42.5t-33 110.5t33 109.5t103 41.5z" />
<glyph unicode="&#xb1;" d="M495 326h-177v-194h-82v194h-183v67h183v192h82v-192h177v-67zM496 -67h-442v67h442v-67z" />
<glyph unicode="&#xb2;" horiz-adv-x="278" d="M141 738q47 0 75.5 -24.5t28.5 -68.5t-59 -121.5t-104 -115.5h171v-37h-229v39q40 33 107.5 116.5t67.5 118.5q0 28 -16.5 42t-41.5 14q-42 0 -92 -24l-14 39q42 22 106 22z" />
<glyph unicode="&#xb3;" horiz-adv-x="286" d="M123 738q106 0 106 -99q0 -56 -45 -80q58 -23 58 -84q0 -52 -26.5 -81.5t-93.5 -29.5q-69 0 -108 28l25 36q28 -25 83 -25q73 0 73 74q0 35 -19 49t-57 14h-44v37h43q33 0 48.5 10.5t15.5 48.5q0 65 -63 65q-39 0 -70 -19l-10 39q37 17 84 17z" />
<glyph unicode="&#xb4;" horiz-adv-x="204" d="M148 747l53 -61l-163 -95l-34 38z" />
<glyph unicode="&#xb5;" horiz-adv-x="444" d="M148 -212h-77v735h77v-415q4 -43 64 -43q27 0 65.5 18t67.5 53v387h78v-523h-59q-10 34 -10 68q-68 -77 -159 -77q-25 0 -47 10v-213z" />
<glyph unicode="&#xb6;" horiz-adv-x="490" d="M439 721l-41 -79v-642h-80v514h-96v-514h-83v516q-58 6 -84 33.5t-26 66.5q0 46 37.5 75.5t111.5 29.5h261z" />
<glyph unicode="&#xb7;" horiz-adv-x="213" d="M103 330q23 0 39.5 -16t16.5 -41t-16.5 -42t-39.5 -17q-24 0 -41 17t-17 42q0 24 17 40.5t41 16.5z" />
<glyph unicode="&#xb8;" horiz-adv-x="165" d="M71 29h79q-20 -127 -90 -193l-38 29q34 79 49 164z" />
<glyph unicode="&#xb9;" horiz-adv-x="192" d="M29 656l-20 36l95 46h30v-367h-48v313z" />
<glyph unicode="&#xba;" horiz-adv-x="319" d="M158 310q-71 0 -99.5 50t-28.5 144q0 92 28.5 142t99.5 50q69 0 99 -48.5t30 -143.5q0 -194 -129 -194zM158 367q66 0 66 137q0 134 -66 134q-65 0 -65 -134q0 -137 65 -137z" />
<glyph unicode="&#xbb;" horiz-adv-x="369" d="M243 120l-42 47l66 108l-66 108l42 48l100 -156zM100 120l-42 47l66 109l-66 107l42 48l101 -156z" />
<glyph unicode="&#xbc;" horiz-adv-x="680" d="M52 656l-20 36l95 46h30v-367h-48v313zM93 0h-50l460 722h52zM400 66v34l170 251h41v-246h36v-39h-36v-76h-48v76h-163zM451 105h112v165z" />
<glyph unicode="&#xbd;" horiz-adv-x="691" d="M52 656l-20 36l95 46h30v-367h-48v313zM93 0h-50l460 722h52zM546 357q47 0 75.5 -24.5t28.5 -68.5t-59 -121.5t-104 -115.5h171v-37h-229v39q40 33 107.5 116.5t67.5 118.5q0 28 -16.5 42t-41.5 14q-42 0 -92 -24l-14 39q42 22 106 22z" />
<glyph unicode="&#xbe;" horiz-adv-x="699" d="M141 738q106 0 106 -99q0 -56 -45 -80q58 -23 58 -84q0 -52 -26.5 -81.5t-93.5 -29.5q-69 0 -108 28l25 36q28 -25 83 -25q73 0 73 74q0 35 -19 49t-57 14h-44v37h43q33 0 48.5 10.5t15.5 48.5q0 65 -63 65q-39 0 -70 -19l-10 39q37 17 84 17zM142 0h-50l460 722h52z M419 66v34l170 251h41v-246h36v-39h-36v-76h-48v76h-163zM470 105h112v165z" />
<glyph unicode="&#xbf;" horiz-adv-x="407" d="M232 -142q60 0 135 40l31 -84q-88 -32 -166 -32q-104 0 -166 45t-62 131q0 48 21.5 89t52 69.5l61 55.5t52 60.5t21.5 70.5q0 26 -6 46h79q11 -35 11 -59q0 -40 -20 -77.5t-49 -67.5l-58 -58.5t-49 -61t-20 -64.5q0 -103 132 -103zM243 453q-23 0 -39.5 16.5t-16.5 40.5 q0 25 16.5 42t39.5 17q25 0 42 -16.5t17 -42.5q0 -25 -16.5 -41t-42.5 -16z" />
<glyph unicode="&#xc0;" horiz-adv-x="612" d="M106 0h-106l255 722h105l252 -722h-108l-70 222h-256zM410 299l-103 323l-106 -323h209zM212 880l53 63l144 -119l-34 -38z" />
<glyph unicode="&#xc1;" horiz-adv-x="612" d="M106 0h-106l255 722h105l252 -722h-108l-70 222h-256zM410 299l-103 323l-106 -323h209zM356 943l53 -61l-163 -95l-34 38z" />
<glyph unicode="&#xc2;" horiz-adv-x="612" d="M106 0h-106l255 722h105l252 -722h-108l-70 222h-256zM410 299l-103 323l-106 -323h209zM217 785l-48 43l115 115h51l117 -115l-53 -41l-90 99z" />
<glyph unicode="&#xc3;" horiz-adv-x="612" d="M106 0h-106l255 722h105l252 -722h-108l-70 222h-256zM410 299l-103 323l-106 -323h209zM209 815l-52 24q18 79 82 79q37 0 76.5 -20.5t53.5 -20.5q29 0 44 46l51 -14q-19 -87 -92 -87q-32 0 -71.5 19.5t-54.5 19.5q-25 0 -37 -46z" />
<glyph unicode="&#xc4;" horiz-adv-x="612" d="M106 0h-106l255 722h105l252 -722h-108l-70 222h-256zM410 299l-103 323l-106 -323h209zM216 906q23 0 38.5 -14t15.5 -35q0 -20 -16 -35.5t-38 -15.5t-36.5 15t-14.5 36q0 22 14 35.5t37 13.5zM404 906q22 0 37 -14t15 -35t-15 -36t-37 -15q-23 0 -38.5 15t-15.5 36 q0 22 15.5 35.5t38.5 13.5z" />
<glyph unicode="&#xc5;" horiz-adv-x="612" d="M397 778q0 -52 -31 -72l246 -706h-108l-70 222h-256l-72 -222h-106l249 706q-30 20 -30 72q0 86 89 86t89 -86zM410 299l-103 323l-106 -323h209zM262 778q0 -50 46 -50q48 0 48 50t-48 50q-46 0 -46 -50z" />
<glyph unicode="&#xc6;" horiz-adv-x="749" d="M719 722v-75h-288v-226h260v-77h-260v-269h289v-75h-381v178h-180l-56 -178h-101l245 722h472zM309 647l-125 -391h155v391h-30z" />
<glyph unicode="&#xc7;" horiz-adv-x="602" d="M325 735q86 0 146 -23t117 -76l-52 -59q-53 43 -100 62t-118 19q-76 0 -118 -80t-42 -213q0 -139 43 -220.5t126 -81.5q119 0 217 81l52 -58q-87 -84 -217 -97q-24 -99 -81 -153l-38 29q28 69 40 122q-127 6 -183.5 103.5t-56.5 274.5q0 370 265 370z" />
<glyph unicode="&#xc8;" horiz-adv-x="494" d="M87 722h373v-75h-276v-226h249v-77h-249v-269h281v-75h-378v722zM186 880l53 63l144 -119l-34 -38z" />
<glyph unicode="&#xc9;" horiz-adv-x="494" d="M87 722h373v-75h-276v-226h249v-77h-249v-269h281v-75h-378v722zM342 943l53 -61l-163 -95l-34 38z" />
<glyph unicode="&#xca;" horiz-adv-x="496" d="M87 722h373v-75h-276v-226h249v-77h-249v-269h281v-75h-378v722zM195 785l-48 43l115 115h51l117 -115l-53 -41l-90 99z" />
<glyph unicode="&#xcb;" horiz-adv-x="494" d="M87 722h373v-75h-276v-226h249v-77h-249v-269h281v-75h-378v722zM190 906q23 0 38.5 -14t15.5 -35q0 -20 -16 -35.5t-38 -15.5t-36.5 15t-14.5 36q0 22 14 35.5t37 13.5zM378 906q22 0 37 -14t15 -35t-15 -36t-37 -15q-23 0 -38.5 15t-15.5 36q0 22 15.5 35.5t38.5 13.5z " />
<glyph unicode="&#xcc;" horiz-adv-x="271" d="M87 722h97v-722h-97v722zM37 880l53 63l144 -119l-34 -38z" />
<glyph unicode="&#xcd;" horiz-adv-x="271" d="M87 722h97v-722h-97v722zM180 943l53 -61l-163 -95l-34 38z" />
<glyph unicode="&#xce;" horiz-adv-x="271" d="M67 722h97v-722h-97v722zM23 785l-48 43l115 115h51l117 -115l-53 -41l-90 99z" />
<glyph unicode="&#xcf;" horiz-adv-x="271" d="M87 722h97v-722h-97v722zM41 906q23 0 38.5 -14t15.5 -35q0 -20 -16 -35.5t-38 -15.5t-36.5 15t-14.5 36q0 22 14 35.5t37 13.5zM229 906q22 0 37 -14t15 -35t-15.5 -36t-36.5 -15q-23 0 -38.5 15t-15.5 36q0 22 15.5 35.5t38.5 13.5z" />
<glyph unicode="&#xd0;" horiz-adv-x="616" d="M226 728q162 0 255 -94.5t93 -272.5q0 -191 -111 -276.5t-327 -85.5q-13 0 -39 0.5t-40 0.5v324h-41v66h41v329q84 9 169 9zM227 649q-59 0 -73 -5v-254h157v-66h-157v-243q159 0 239.5 65t80.5 215q0 79 -20.5 137t-56.5 90t-78 46.5t-92 14.5z" />
<glyph unicode="&#xd1;" horiz-adv-x="707" d="M87 0v722h109l337 -591v591h86v-722h-105l-338 590v-590h-89zM251 815l-52 24q18 79 82 79q37 0 76.5 -20.5t53.5 -20.5q29 0 44 46l51 -14q-19 -87 -92 -87q-32 0 -71.5 19.5t-54.5 19.5q-25 0 -37 -46z" />
<glyph unicode="&#xd2;" horiz-adv-x="731" d="M368 735q155 0 228.5 -92.5t73.5 -281.5q0 -190 -73.5 -282.5t-228.5 -92.5q-308 0 -308 375q0 182 81 278t227 96zM368 660q-86 0 -145 -73t-59 -226q0 -155 58.5 -225.5t145.5 -70.5t142.5 71t55.5 225q0 153 -57 226t-141 73zM266 880l53 63l144 -119l-34 -38z" />
<glyph unicode="&#xd3;" horiz-adv-x="731" d="M368 735q155 0 228.5 -92.5t73.5 -281.5q0 -190 -73.5 -282.5t-228.5 -92.5q-308 0 -308 375q0 182 81 278t227 96zM368 660q-86 0 -145 -73t-59 -226q0 -155 58.5 -225.5t145.5 -70.5t142.5 71t55.5 225q0 153 -57 226t-141 73zM410 943l53 -61l-163 -95l-34 38z" />
<glyph unicode="&#xd4;" horiz-adv-x="731" d="M368 735q155 0 228.5 -92.5t73.5 -281.5q0 -190 -73.5 -282.5t-228.5 -92.5q-308 0 -308 375q0 182 81 278t227 96zM368 660q-86 0 -145 -73t-59 -226q0 -155 58.5 -225.5t145.5 -70.5t142.5 71t55.5 225q0 153 -57 226t-141 73zM271 785l-48 43l115 115h51l117 -115 l-53 -41l-90 99z" />
<glyph unicode="&#xd5;" horiz-adv-x="731" d="M368 735q155 0 228.5 -92.5t73.5 -281.5q0 -190 -73.5 -282.5t-228.5 -92.5q-308 0 -308 375q0 182 81 278t227 96zM368 660q-86 0 -145 -73t-59 -226q0 -155 58.5 -225.5t145.5 -70.5t142.5 71t55.5 225q0 153 -57 226t-141 73zM263 815l-52 24q18 79 82 79 q37 0 76.5 -20.5t53.5 -20.5q29 0 44 46l51 -14q-19 -87 -92 -87q-32 0 -71.5 19.5t-54.5 19.5q-25 0 -37 -46z" />
<glyph unicode="&#xd6;" horiz-adv-x="731" d="M368 735q155 0 228.5 -92.5t73.5 -281.5q0 -190 -73.5 -282.5t-228.5 -92.5q-308 0 -308 375q0 182 81 278t227 96zM368 660q-86 0 -145 -73t-59 -226q0 -155 58.5 -225.5t145.5 -70.5t142.5 71t55.5 225q0 153 -57 226t-141 73zM270 906q23 0 38.5 -14t15.5 -35 q0 -20 -16 -35.5t-38 -15.5t-36.5 15t-14.5 36q0 22 14 35.5t37 13.5zM458 906q22 0 37 -14t15 -35t-15 -36t-37 -15q-23 0 -38.5 15t-15.5 36q0 22 15.5 35.5t38.5 13.5z" />
<glyph unicode="&#xd7;" d="M406 180l-125 125l-138 -137l-57 57l137 138l-128 129l46 47l130 -130l135 137l58 -58l-136 -136l126 -126z" />
<glyph unicode="&#xd8;" horiz-adv-x="731" d="M609 765l-47 -91q108 -92 108 -313q0 -375 -302 -375q-78 0 -142 29l-29 -56h-72l47 90q-112 91 -112 312q0 181 81 277t227 96q80 0 140 -27l29 58h72zM368 662q-86 0 -145 -74t-59 -227q0 -146 55 -222l248 491q-44 32 -99 32zM368 58q86 0 142 75.5t56 227.5 q0 139 -53 219l-248 -490q45 -32 103 -32z" />
<glyph unicode="&#xd9;" horiz-adv-x="674" d="M77 722h97v-502q0 -155 162 -155q164 0 164 155v502h96v-519q0 -100 -72 -158.5t-188 -58.5q-111 0 -185 58.5t-74 158.5v519zM238 880l53 63l144 -119l-34 -38z" />
<glyph unicode="&#xda;" horiz-adv-x="674" d="M77 722h97v-502q0 -155 162 -155q164 0 164 155v502h96v-519q0 -100 -72 -158.5t-188 -58.5q-111 0 -185 58.5t-74 158.5v519zM382 943l53 -61l-163 -95l-34 38z" />
<glyph unicode="&#xdb;" horiz-adv-x="674" d="M77 722h97v-502q0 -155 162 -155q164 0 164 155v502h96v-519q0 -100 -72 -158.5t-188 -58.5q-111 0 -185 58.5t-74 158.5v519zM243 785l-48 43l115 115h51l117 -115l-53 -41l-90 99z" />
<glyph unicode="&#xdc;" horiz-adv-x="674" d="M77 722h97v-502q0 -155 162 -155q164 0 164 155v502h96v-519q0 -100 -72 -158.5t-188 -58.5q-111 0 -185 58.5t-74 158.5v519zM241 906q23 0 38.5 -14t15.5 -35q0 -20 -16 -35.5t-38 -15.5t-36.5 15t-14.5 36q0 22 14 35.5t37 13.5zM429 906q22 0 37 -14t15 -35 t-15.5 -36t-36.5 -15q-23 0 -38.5 15t-15.5 36q0 22 15.5 35.5t38.5 13.5z" />
<glyph unicode="&#xdd;" horiz-adv-x="572" d="M114 722l173 -341l179 341h106l-236 -431v-291h-96v291l-240 431h114zM307 943l53 -61l-163 -95l-34 38z" />
<glyph unicode="&#xde;" horiz-adv-x="555" d="M87 722h97v-150q46 4 124 4q122 0 176 -47t54 -136q0 -109 -62.5 -169t-182.5 -60h-109v-164h-97v722zM314 501q-60 0 -130 -5v-257h123q64 0 99.5 38t35.5 101q0 123 -128 123z" />
<glyph unicode="&#xdf;" horiz-adv-x="520" d="M260 782q104 0 153.5 -54t49.5 -144q0 -133 -103 -168q59 -16 96 -69.5t37 -122.5q0 -113 -56.5 -175t-191.5 -62v77q14 -1 35 -1q55 0 85.5 46t30.5 122q0 72 -39 104t-114 34v73q65 3 96.5 30t31.5 103q0 71 -26 102t-85 31q-98 0 -98 -133v-575h-91v583q0 199 189 199 z" />
<glyph unicode="&#xe0;" horiz-adv-x="486" d="M268 536q84 0 118 -39.5t34 -119.5v-377h-69q-10 26 -10 70q-34 -42 -69.5 -61.5t-87.5 -19.5q-65 0 -104.5 41.5t-39.5 96.5q0 96 79 142.5t217 46.5v70q0 38 -16.5 56.5t-54.5 18.5q-88 0 -169 -53l-36 59q36 29 94.5 49t113.5 20zM336 152v108q-207 -12 -207 -125 q0 -75 76 -75q41 0 78 26t53 66zM153 684l53 63l144 -119l-34 -38z" />
<glyph unicode="&#xe1;" horiz-adv-x="486" d="M268 536q84 0 118 -39.5t34 -119.5v-377h-69q-10 26 -10 70q-34 -42 -69.5 -61.5t-87.5 -19.5q-65 0 -104.5 41.5t-39.5 96.5q0 96 79 142.5t217 46.5v70q0 38 -16.5 56.5t-54.5 18.5q-88 0 -169 -53l-36 59q36 29 94.5 49t113.5 20zM336 152v108q-207 -12 -207 -125 q0 -75 76 -75q41 0 78 26t53 66zM296 747l53 -61l-163 -95l-34 38z" />
<glyph unicode="&#xe2;" horiz-adv-x="486" d="M268 536q84 0 118 -39.5t34 -119.5v-377h-69q-10 26 -10 70q-34 -42 -69.5 -61.5t-87.5 -19.5q-65 0 -104.5 41.5t-39.5 96.5q0 96 79 142.5t217 46.5v70q0 38 -16.5 56.5t-54.5 18.5q-88 0 -169 -53l-36 59q36 29 94.5 49t113.5 20zM336 152v108q-207 -12 -207 -125 q0 -75 76 -75q41 0 78 26t53 66zM157 589l-48 43l115 115h51l117 -115l-53 -41l-90 99z" />
<glyph unicode="&#xe3;" horiz-adv-x="486" d="M268 536q84 0 118 -39.5t34 -119.5v-377h-69q-10 26 -10 70q-34 -42 -69.5 -61.5t-87.5 -19.5q-65 0 -104.5 41.5t-39.5 96.5q0 96 79 142.5t217 46.5v70q0 38 -16.5 56.5t-54.5 18.5q-88 0 -169 -53l-36 59q36 29 94.5 49t113.5 20zM336 152v108q-207 -12 -207 -125 q0 -75 76 -75q41 0 78 26t53 66zM150 619l-52 24q18 79 82 79q37 0 76.5 -20.5t53.5 -20.5q29 0 44 46l51 -14q-19 -87 -92 -87q-32 0 -71.5 19.5t-54.5 19.5q-25 0 -37 -46z" />
<glyph unicode="&#xe4;" horiz-adv-x="486" d="M268 536q84 0 118 -39.5t34 -119.5v-377h-69q-10 26 -10 70q-34 -42 -69.5 -61.5t-87.5 -19.5q-65 0 -104.5 41.5t-39.5 96.5q0 96 79 142.5t217 46.5v70q0 38 -16.5 56.5t-54.5 18.5q-88 0 -169 -53l-36 59q36 29 94.5 49t113.5 20zM336 152v108q-207 -12 -207 -125 q0 -75 76 -75q41 0 78 26t53 66zM156 710q23 0 38.5 -14t15.5 -35q0 -20 -16 -35.5t-38 -15.5t-36.5 15t-14.5 36q0 22 14 35.5t37 13.5zM344 710q22 0 37 -14t15 -35t-15 -36t-37 -15q-23 0 -38.5 15t-15.5 36q0 22 15.5 35.5t38.5 13.5z" />
<glyph unicode="&#xe5;" horiz-adv-x="486" d="M268 536q84 0 118 -39.5t34 -119.5v-377h-69q-10 26 -10 70q-34 -42 -69.5 -61.5t-87.5 -19.5q-65 0 -104.5 41.5t-39.5 96.5q0 96 79 142.5t217 46.5v70q0 38 -16.5 56.5t-54.5 18.5q-88 0 -169 -53l-36 59q36 29 94.5 49t113.5 20zM336 152v108q-207 -12 -207 -125 q0 -75 76 -75q41 0 78 26t53 66zM340 651q0 -87 -88 -87q-89 0 -89 87q0 85 89 85q88 0 88 -85zM206 651q0 -26 10.5 -38t35.5 -12q47 0 47 50t-47 50q-25 0 -35.5 -12t-10.5 -38z" />
<glyph unicode="&#xe6;" horiz-adv-x="782" d="M552 536q53 0 93 -20.5t61.5 -55.5t31.5 -74.5t10 -83.5v-32h-324q3 -40 6.5 -64t12 -55t21 -48t34.5 -29t52 -12q43 0 92 22t72 55l40 -52q-73 -98 -215 -98q-112 0 -163 107q-20 -46 -73.5 -76.5t-118.5 -30.5t-104.5 41.5t-39.5 96.5q0 183 296 183v76 q0 38 -16.5 56.5t-54.5 18.5q-91 0 -167 -51l-35 54q30 32 87 52t113 20q105 0 134 -78q50 78 155 78zM336 152v108q-211 -12 -211 -125q0 -75 80 -75q41 0 78 26t53 66zM545 467q-56 0 -83.5 -34t-36.5 -105h238q-8 63 -33.5 101t-84.5 38z" />
<glyph unicode="&#xe7;" horiz-adv-x="435" d="M235 535q44 0 82 -15.5t58.5 -31.5t48.5 -44l-45 -49q-33 33 -64 50t-75 17q-123 0 -123 -199q0 -99 32 -150t89 -51q84 0 149 67l46 -49q-75 -75 -159 -86q-24 -104 -83 -158l-37 29q27 65 41 126q-86 13 -126.5 87t-40.5 185q0 123 48.5 197.5t158.5 74.5z" />
<glyph unicode="&#xe8;" horiz-adv-x="471" d="M235 536q56 0 97 -21t63 -56.5t32 -74.5t10 -82v-32h-324q2 -45 7 -77.5t17.5 -64.5t38 -49t63.5 -17q43 0 92 22t72 55l40 -52q-73 -98 -220 -98q-48 0 -84.5 18.5t-56.5 46.5t-33 66.5t-17 71.5t-4 69q0 275 207 275zM235 467q-57 0 -84 -34t-36 -105h237 q-12 139 -117 139zM136 684l53 63l144 -119l-34 -38z" />
<glyph unicode="&#xe9;" horiz-adv-x="471" d="M235 536q56 0 97 -21t63 -56.5t32 -74.5t10 -82v-32h-324q2 -45 7 -77.5t17.5 -64.5t38 -49t63.5 -17q43 0 92 22t72 55l40 -52q-73 -98 -220 -98q-48 0 -84.5 18.5t-56.5 46.5t-33 66.5t-17 71.5t-4 69q0 275 207 275zM235 467q-57 0 -84 -34t-36 -105h237 q-12 139 -117 139zM280 747l53 -61l-163 -95l-34 38z" />
<glyph unicode="&#xea;" horiz-adv-x="471" d="M235 536q56 0 97 -21t63 -56.5t32 -74.5t10 -82v-32h-324q2 -45 7 -77.5t17.5 -64.5t38 -49t63.5 -17q43 0 92 22t72 55l40 -52q-73 -98 -220 -98q-48 0 -84.5 18.5t-56.5 46.5t-33 66.5t-17 71.5t-4 69q0 275 207 275zM235 467q-57 0 -84 -34t-36 -105h237 q-12 139 -117 139zM141 589l-48 43l115 115h51l117 -115l-53 -41l-90 99z" />
<glyph unicode="&#xeb;" horiz-adv-x="471" d="M235 536q56 0 97 -21t63 -56.5t32 -74.5t10 -82v-32h-324q2 -45 7 -77.5t17.5 -64.5t38 -49t63.5 -17q43 0 92 22t72 55l40 -52q-73 -98 -220 -98q-48 0 -84.5 18.5t-56.5 46.5t-33 66.5t-17 71.5t-4 69q0 275 207 275zM235 467q-57 0 -84 -34t-36 -105h237 q-12 139 -117 139zM140 710q23 0 38.5 -14t15.5 -35q0 -20 -16 -35.5t-38 -15.5t-36.5 15t-14.5 36q0 22 14 35.5t37 13.5zM328 710q22 0 37 -14t15 -35t-15 -36t-37 -15q-23 0 -38.5 15t-15.5 36q0 22 15.5 35.5t38.5 13.5z" />
<glyph unicode="&#xec;" horiz-adv-x="235" d="M163 526v-526h-92v526h92zM18 684l53 63l144 -119l-34 -38z" />
<glyph unicode="&#xed;" horiz-adv-x="235" d="M163 526v-526h-92v526h92zM162 747l53 -61l-163 -95l-34 38z" />
<glyph unicode="&#xee;" horiz-adv-x="235" d="M143 526v-526h-92v526h92zM5 589l-48 43l115 115h51l117 -115l-53 -41l-90 99z" />
<glyph unicode="&#xef;" horiz-adv-x="235" d="M163 526v-526h-92v526h92zM23 710q23 0 38.5 -14t15.5 -35q0 -20 -16 -35.5t-38 -15.5t-36.5 15t-14.5 36q0 22 14 35.5t37 13.5zM211 710q22 0 37 -14t15 -35t-15.5 -36t-36.5 -15q-23 0 -38.5 15t-15.5 36q0 22 15.5 35.5t38.5 13.5z" />
<glyph unicode="&#xf0;" horiz-adv-x="589" d="M241 783q153 0 225.5 -107t72.5 -332q0 -166 -66.5 -262t-192.5 -96q-123 0 -187.5 70.5t-64.5 205.5q0 51 9.5 95.5t33 88t70 69t112.5 25.5q141 0 208 -115q-11 109 -70 194t-142 85q-55 0 -105 -13v81q32 11 97 11zM432 262q0 91 -49.5 148t-121.5 57 q-69 0 -106 -55.5t-37 -160.5q0 -97 47.5 -146.5t113.5 -49.5q64 0 108.5 57t44.5 150z" />
<glyph unicode="&#xf1;" horiz-adv-x="518" d="M452 0h-89v409q0 52 -61 52q-67 0 -140 -78v-383h-91v526h74q10 -43 10 -68q85 78 180 78q117 0 117 -135v-401zM157 619l-52 24q18 79 82 79q37 0 76.5 -20.5t53.5 -20.5q29 0 44 46l51 -14q-19 -87 -92 -87q-32 0 -71.5 19.5t-54.5 19.5q-25 0 -37 -46z" />
<glyph unicode="&#xf2;" horiz-adv-x="485" d="M242 536q215 0 215 -275q0 -57 -11 -103.5t-34.5 -86t-66.5 -61t-103 -21.5q-214 0 -214 272q0 57 11 104t34.5 87t66.5 62t102 22zM242 461q-61 0 -92.5 -56t-31.5 -144q0 -87 31.5 -143t92.5 -56t93 56t32 143q0 88 -31.5 144t-93.5 56zM143 684l53 63l144 -119 l-34 -38z" />
<glyph unicode="&#xf3;" horiz-adv-x="485" d="M242 536q215 0 215 -275q0 -57 -11 -103.5t-34.5 -86t-66.5 -61t-103 -21.5q-214 0 -214 272q0 57 11 104t34.5 87t66.5 62t102 22zM242 461q-61 0 -92.5 -56t-31.5 -144q0 -87 31.5 -143t92.5 -56t93 56t32 143q0 88 -31.5 144t-93.5 56zM287 747l53 -61l-163 -95 l-34 38z" />
<glyph unicode="&#xf4;" horiz-adv-x="485" d="M242 536q215 0 215 -275q0 -57 -11 -103.5t-34.5 -86t-66.5 -61t-103 -21.5q-214 0 -214 272q0 57 11 104t34.5 87t66.5 62t102 22zM242 461q-61 0 -92.5 -56t-31.5 -144q0 -87 31.5 -143t92.5 -56t93 56t32 143q0 88 -31.5 144t-93.5 56zM149 589l-48 43l115 115h51 l117 -115l-53 -41l-90 99z" />
<glyph unicode="&#xf5;" horiz-adv-x="485" d="M242 536q215 0 215 -275q0 -57 -11 -103.5t-34.5 -86t-66.5 -61t-103 -21.5q-214 0 -214 272q0 57 11 104t34.5 87t66.5 62t102 22zM242 461q-61 0 -92.5 -56t-31.5 -144q0 -87 31.5 -143t92.5 -56t93 56t32 143q0 88 -31.5 144t-93.5 56zM140 619l-52 24q18 79 82 79 q37 0 76.5 -20.5t53.5 -20.5q29 0 44 46l51 -14q-19 -87 -92 -87q-32 0 -71.5 19.5t-54.5 19.5q-25 0 -37 -46z" />
<glyph unicode="&#xf6;" horiz-adv-x="485" d="M242 536q215 0 215 -275q0 -57 -11 -103.5t-34.5 -86t-66.5 -61t-103 -21.5q-214 0 -214 272q0 57 11 104t34.5 87t66.5 62t102 22zM242 461q-61 0 -92.5 -56t-31.5 -144q0 -87 31.5 -143t92.5 -56t93 56t32 143q0 88 -31.5 144t-93.5 56zM147 710q23 0 38.5 -14 t15.5 -35q0 -20 -16 -35.5t-38 -15.5t-36.5 15t-14.5 36q0 22 14 35.5t37 13.5zM335 710q22 0 37 -14t15 -35t-15.5 -36t-36.5 -15q-23 0 -38.5 15t-15.5 36q0 22 15.5 35.5t38.5 13.5z" />
<glyph unicode="&#xf7;" horiz-adv-x="432" d="M436 326h-442v67h442v-67zM224 642q24 0 40 -16t16 -41t-16.5 -42t-39.5 -17q-24 0 -41 17t-17 42q0 24 17 40.5t41 16.5zM224 198q24 0 40 -16t16 -41t-16.5 -42t-39.5 -17q-24 0 -41 17t-17 42q0 24 17 40.5t41 16.5z" />
<glyph unicode="&#xf8;" horiz-adv-x="485" d="M242 536q51 0 91 -19l20 40h64l-34 -71q74 -69 74 -225q0 -57 -11 -103.5t-34.5 -86t-66.5 -61t-103 -21.5q-43 0 -88 15l-26 -54h-62l39 84q-77 62 -77 227q0 57 11 104t34.5 87t66.5 62t102 22zM242 461q-61 0 -92.5 -56t-31.5 -144q0 -87 30 -140l151 324 q-27 16 -57 16zM367 261q0 82 -28 135l-151 -320q22 -14 54 -14q61 0 93 56t32 143z" />
<glyph unicode="&#xf9;" horiz-adv-x="503" d="M66 526h89v-405q0 -27 15.5 -41t39.5 -14q59 0 131 77v383h91v-526h-74q-10 43 -10 68q-83 -76 -172 -76q-110 0 -110 137v397zM153 684l53 63l144 -119l-34 -38z" />
<glyph unicode="&#xfa;" horiz-adv-x="503" d="M66 526h89v-405q0 -27 15.5 -41t39.5 -14q59 0 131 77v383h91v-526h-74q-10 43 -10 68q-83 -76 -172 -76q-110 0 -110 137v397zM296 747l53 -61l-163 -95l-34 38z" />
<glyph unicode="&#xfb;" horiz-adv-x="503" d="M66 526h89v-405q0 -27 15.5 -41t39.5 -14q59 0 131 77v383h91v-526h-74q-10 43 -10 68q-83 -76 -172 -76q-110 0 -110 137v397zM158 589l-48 43l115 115h51l117 -115l-53 -41l-90 99z" />
<glyph unicode="&#xfc;" horiz-adv-x="503" d="M66 526h89v-405q0 -27 15.5 -41t39.5 -14q59 0 131 77v383h91v-526h-74q-10 43 -10 68q-83 -76 -172 -76q-110 0 -110 137v397zM157 710q23 0 38.5 -14t15.5 -35q0 -20 -16 -35.5t-38 -15.5t-36.5 15t-14.5 36q0 22 14 35.5t37 13.5zM345 710q22 0 37 -14t15 -35 t-15.5 -36t-36.5 -15q-23 0 -38.5 15t-15.5 36q0 22 15.5 35.5t38.5 13.5z" />
<glyph unicode="&#xfd;" horiz-adv-x="458" d="M102 526l128 -409l135 409h97l-221 -600q-24 -61 -75 -99.5t-107 -38.5q-69 0 -103 12l40 80q25 -11 56 -11q81 0 113 86l21 56l-189 515h105zM226 747l53 -61l-163 -95l-34 38z" />
<glyph unicode="&#xfe;" horiz-adv-x="499" d="M160 -212h-89v972h90v-270q70 46 141 46q169 0 169 -258q0 -56 -10 -104.5t-31.5 -91.5t-61 -68t-94.5 -25q-80 0 -114 40v-241zM270 461q-61 0 -113 -56v-310q39 -33 102 -33q47 0 85.5 47.5t38.5 159.5t-29.5 152t-83.5 40z" />
<glyph unicode="&#xff;" horiz-adv-x="458" d="M102 526l128 -409l135 409h97l-221 -600q-24 -61 -75 -99.5t-107 -38.5q-69 0 -103 12l40 80q25 -11 56 -11q81 0 113 86l21 56l-189 515h105zM90 710q23 0 38.5 -14t15.5 -35q0 -20 -16 -35.5t-38 -15.5t-36.5 15t-14.5 36q0 22 14 35.5t37 13.5zM278 710q22 0 37 -14 t15 -35t-15 -36t-37 -15q-23 0 -38.5 15t-15.5 36q0 22 15.5 35.5t38.5 13.5z" />
<glyph unicode="&#x152;" horiz-adv-x="1009" d="M574 722h372v-75h-276v-226h249v-77h-249v-269h282v-75h-378v82q-74 -96 -219 -96q-141 0 -219.5 96t-78.5 279q0 180 79.5 276.5t216.5 96.5q152 0 221 -95v83zM366 663q-87 0 -146 -74.5t-59 -227.5q0 -155 59 -230t146 -75q85 0 141 76.5t56 228.5q0 155 -57 228.5 t-140 73.5z" />
<glyph unicode="&#x153;" horiz-adv-x="819" d="M577 536q56 0 98 -21t64 -56.5t32 -74.5t10 -82v-33h-321q3 -39 6.5 -63.5t11.5 -55t20.5 -47.5t33.5 -29t50 -12q38 0 87.5 25.5t72.5 59.5l51 -57q-79 -101 -227 -101q-101 0 -150 86q-50 -86 -174 -86q-64 0 -108 21.5t-66 61.5t-31 85t-9 104q0 47 5 84.5t19 74 t37 61.5t62 40t91 15q120 0 173 -91q50 91 162 91zM242 461q-61 0 -91.5 -56t-30.5 -144t30.5 -143.5t91.5 -55.5q62 0 93 55.5t31 143.5t-31 144t-93 56zM576 461q-55 0 -80.5 -30t-34.5 -97h228q-12 127 -113 127z" />
<glyph unicode="&#x178;" horiz-adv-x="572" d="M114 722l173 -341l179 341h106l-236 -431v-291h-96v291l-240 431h114zM167 906q23 0 38.5 -14t15.5 -35q0 -20 -16 -35.5t-38 -15.5t-36.5 15t-14.5 36q0 22 14 35.5t37 13.5zM355 906q22 0 37 -14t15 -35t-15.5 -36t-36.5 -15q-23 0 -38.5 15t-15.5 36q0 22 15.5 35.5 t38.5 13.5z" />
<glyph unicode="&#x2c6;" horiz-adv-x="338" d="M76 589l-48 43l115 115h51l117 -115l-53 -41l-90 99z" />
<glyph unicode="&#x2dc;" horiz-adv-x="403" d="M102 619l-52 24q18 79 82 79q37 0 76.5 -20.5t53.5 -20.5q29 0 44 46l51 -14q-19 -87 -92 -87q-32 0 -71.5 19.5t-54.5 19.5q-25 0 -37 -46z" />
<glyph unicode="&#x2000;" horiz-adv-x="471" />
<glyph unicode="&#x2001;" horiz-adv-x="943" />
<glyph unicode="&#x2002;" horiz-adv-x="471" />
<glyph unicode="&#x2003;" horiz-adv-x="943" />
<glyph unicode="&#x2004;" horiz-adv-x="314" />
<glyph unicode="&#x2005;" horiz-adv-x="235" />
<glyph unicode="&#x2006;" horiz-adv-x="157" />
<glyph unicode="&#x2007;" horiz-adv-x="157" />
<glyph unicode="&#x2008;" horiz-adv-x="117" />
<glyph unicode="&#x2009;" horiz-adv-x="188" />
<glyph unicode="&#x200a;" horiz-adv-x="52" />
<glyph unicode="&#x2010;" horiz-adv-x="367" d="M292 249h-221v67h221v-67z" />
<glyph unicode="&#x2011;" horiz-adv-x="367" d="M292 249h-221v67h221v-67z" />
<glyph unicode="&#x2013;" horiz-adv-x="651" d="M579 249h-508v67h508v-67z" />
<glyph unicode="&#x2014;" horiz-adv-x="767" d="M695 253h-624v68h624v-68z" />
<glyph unicode="&#x2018;" horiz-adv-x="177" d="M89 765l68 -267l-52 -17l-107 255z" />
<glyph unicode="&#x2019;" horiz-adv-x="178" d="M19 498l68 267l91 -29l-108 -255z" />
<glyph unicode="&#x201a;" horiz-adv-x="178" d="M19 -153l68 267l91 -28l-108 -256z" />
<glyph unicode="&#x201c;" horiz-adv-x="408" d="M120 765l68 -267l-51 -17l-107 255zM293 765l68 -267l-50 -17l-107 255z" />
<glyph unicode="&#x201d;" horiz-adv-x="409" d="M45 498l67 267l91 -29l-108 -255zM217 498l69 267l91 -29l-109 -255z" />
<glyph unicode="&#x201e;" horiz-adv-x="409" d="M45 -153l67 267l91 -28l-108 -256zM217 -153l69 267l91 -28l-109 -256z" />
<glyph unicode="&#x2022;" horiz-adv-x="389" d="M194 479q62 0 105 -39t43 -97q0 -57 -43 -95.5t-105 -38.5q-63 0 -106 38.5t-43 95.5q0 58 43 97t106 39z" />
<glyph unicode="&#x2026;" horiz-adv-x="1006" d="M126 104q24 0 40.5 -16.5t16.5 -40.5q0 -25 -16.5 -42t-40.5 -17q-25 0 -41.5 17t-16.5 42t16.5 41t41.5 16zM503 104q24 0 40.5 -16t16.5 -41t-16.5 -42t-40.5 -17q-25 0 -41.5 17t-16.5 42t16.5 41t41.5 16zM880 104q24 0 40.5 -16t16.5 -41t-16.5 -42t-40.5 -17 t-41 17t-17 42q0 24 17 40.5t41 16.5z" />
<glyph unicode="&#x202f;" horiz-adv-x="188" />
<glyph unicode="&#x2039;" horiz-adv-x="188" d="M137 167l-43 -47l-99 155l99 156l43 -48l-67 -108z" />
<glyph unicode="&#x203a;" horiz-adv-x="186" d="M89 120l-43 47l66 109l-66 107l43 48l99 -156z" />
<glyph unicode="&#x205f;" horiz-adv-x="235" />
<glyph unicode="&#x20ac;" horiz-adv-x="594" d="M24 467h50q19 144 99.5 206t228.5 62q76 0 135 -20l-30 -65q-54 19 -125 19q-177 0 -214 -202h281l-25 -59h-264q-2 -14 -2 -34q0 -36 4 -69h221l-25 -58h-186q19 -92 66 -142.5t116 -50.5q86 0 147 42l45 -59q-42 -27 -88 -38.5t-116 -11.5q-222 0 -264 260h-54v58h47 q-4 31 -4 66q0 13 2 37h-45v59z" />
<glyph unicode="&#x2122;" horiz-adv-x="675" d="M369 722l93 -140l95 140h44l17 -300h-59l-9 199l-88 -134l-85 132l-9 -197h-60l17 300h44zM194 671v-249h-52v249h-73v51h196v-51h-71z" />
</font>
</defs>
</svg>
